<svg xmlns="http://www.w3.org/2000/svg" width="256" height="256" viewBox="0 0 100 100"><rect width="100" height="100" rx="20" fill="#000000"></rect><path fill="#fff" d="M28.97 55.46L28.97 55.46L22.73 55.46L22.73 70.34L17.87 70.34L17.87 29.90L28.49 29.90Q35.51 29.90 39.56 33.53Q43.61 37.16 43.61 42.92L43.61 42.92Q43.61 48.32 39.59 51.89Q35.57 55.46 28.97 55.46ZM28.55 34.04L28.55 34.04L22.73 34.04L22.73 51.32L28.97 51.32Q33.53 51.32 36.11 48.95Q38.69 46.58 38.69 42.92L38.69 42.92Q38.69 38.84 36.05 36.44Q33.41 34.04 28.55 34.04ZM82.07 66.98L82.13 67.16Q77.27 70.82 69.59 70.82L69.59 70.82Q60.23 70.82 54.53 65.27Q48.83 59.72 48.83 50.06L48.83 50.06Q48.83 40.88 54.50 35.03Q60.17 29.18 68.81 29.18L68.81 29.18Q75.95 29.18 80.63 31.94L80.63 31.94L80.63 37.16Q75.71 33.92 69.23 33.92L69.23 33.92Q62.45 33.92 58.19 38.33Q53.93 42.74 53.93 50.06L53.93 50.06Q53.93 57.56 58.13 61.85Q62.33 66.14 69.71 66.14L69.71 66.14Q73.79 66.14 77.27 64.52L77.27 64.52L77.27 51.92L68.39 51.92L68.39 47.66L82.13 47.66L82.13 66.98L82.07 66.98Z"></path></svg>